<?xml version="1.0" encoding="UTF-8" standalone="no"?>
<!-- Created with Inkscape (http://www.inkscape.org/) -->
<svg width="32" height="32" viewBox="0 0 8.4666665 8.4666669" version="1.1" id="svg8" inkscape:version="1.2.2 (b0a84865, 2022-12-01)" sodipodi:docname="logo.svg" inkscape:export-filename="smile3.png" inkscape:export-xdpi="1536.0001" inkscape:export-ydpi="1536.0001" xmlns:inkscape="http://www.inkscape.org/namespaces/inkscape" xmlns:sodipodi="http://sodipodi.sourceforge.net/DTD/sodipodi-0.dtd" xmlns:xlink="http://www.w3.org/1999/xlink" xmlns="http://www.w3.org/2000/svg" xmlns:svg="http://www.w3.org/2000/svg" xmlns:rdf="http://www.w3.org/1999/02/22-rdf-syntax-ns#" xmlns:cc="http://creativecommons.org/ns#" xmlns:dc="http://purl.org/dc/elements/1.1/">
  <defs id="defs2">
    <linearGradient inkscape:collect="always" xlink:href="#linearGradient9209" id="linearGradient12830" x1="432" y1="942.51965" x2="464" y2="910.51965" gradientUnits="userSpaceOnUse" gradientTransform="matrix(0.26458333,0,0,0.26458333,-114.3,47.624986)"/>
    <linearGradient id="linearGradient9209" inkscape:collect="always">
      <stop id="stop9205" offset="0" style="stop-color:#001f67;stop-opacity:1;"/>
      <stop id="stop9207" offset="1" style="stop-color:#004dc4;stop-opacity:1;"/>
    </linearGradient>
  </defs>
  <sodipodi:namedview id="base" pagecolor="#ffffff" bordercolor="#666666" borderopacity="1.0" inkscape:pageopacity="0.0" inkscape:pageshadow="2" inkscape:zoom="22.4" inkscape:cx="16.160714" inkscape:cy="14.955357" inkscape:document-units="mm" inkscape:current-layer="layer1" showgrid="true" units="px" inkscape:window-width="1680" inkscape:window-height="1050" inkscape:window-x="0" inkscape:window-y="0" inkscape:window-maximized="0" inkscape:showpageshadow="0" inkscape:pagecheckerboard="0" inkscape:deskcolor="#d1d1d1">
    <inkscape:grid type="xygrid" id="grid815" empspacing="4" enabled="true"/>
    <inkscape:grid type="xygrid" id="grid817" empspacing="1" originy="0.13229167" originx="0.13229167" dotted="true" enabled="true"/>
  </sodipodi:namedview>
  <metadata id="metadata5">
    <rdf:RDF>
      <cc:Work rdf:about="">
        <dc:format>image/svg+xml</dc:format>
        <dc:type rdf:resource="http://purl.org/dc/dcmitype/StillImage"/>
      </cc:Work>
    </rdf:RDF>
  </metadata>
  <g inkscape:label="Layer 1" inkscape:groupmode="layer" id="layer1" transform="translate(0,-288.53332)">
    <path id="rect12821" style="opacity:1;fill:url(#linearGradient12830);fill-opacity:1;stroke:none;stroke-width:1.05833328;stroke-linecap:round;stroke-linejoin:round;stroke-miterlimit:4;stroke-dasharray:none;stroke-dashoffset:0;stroke-opacity:1;paint-order:normal" d="M 4.2333333 288.53332 A 4.2333331 4.2333331 0 0 0 0 292.76562 A 4.2333331 4.2333331 0 0 0 0 292.76665 A 4.2333331 4.2333331 0 0 0 4.2333333 296.99999 A 4.2333331 4.2333331 0 0 0 8.4666667 292.76665 A 4.2333331 4.2333331 0 0 0 8.4666667 292.76614 A 4.2333331 4.2333331 0 0 0 4.2436686 288.53332 A 4.2333331 4.2333331 0 0 0 4.2333333 288.53332 z "/>
    <path id="rect824-64-5-2" style="font-style:normal;font-variant:normal;font-weight:normal;font-stretch:normal;font-size:4.06419373px;line-height:1.25;font-family:Contemporary;-inkscape-font-specification:Contemporary;letter-spacing:0px;word-spacing:0px;opacity:1;fill:#000000;fill-opacity:1;stroke:none;stroke-width:0.36035824;stroke-linecap:round;stroke-linejoin:round;stroke-miterlimit:4;stroke-dasharray:none;stroke-dashoffset:0;stroke-opacity:1;paint-order:normal" d="M 4.249353 291.7078 C 3.7748751 291.69961 3.3398128 292.01271 3.2111735 292.49277 L 2.183846 296.32613 L 2.1518066 296.44653 L 2.1507731 296.45067 A 4.2333331 4.2333331 0 0 0 4.2333333 296.99999 A 4.2333331 4.2333331 0 0 0 8.461499 292.89895 L 8.4599487 292.89895 A 4.2333333 4.2333333 0 0 0 8.4630493 292.80438 L 4.5072184 291.74449 C 4.4364265 291.72549 4.3656421 291.71417 4.2953451 291.70987 C 4.2799662 291.70893 4.2646588 291.70807 4.249353 291.7078 z "/>
    <g id="g9697" transform="matrix(0.49985463,0,0,0.49985463,3.0971939,148.33282)">
      <g id="g27466" transform="rotate(-75,4.2361999,292.22718)">
        <circle style="fill:#ffffff;fill-opacity:1;stroke:none;stroke-width:0.264583;stroke-linecap:round;stroke-linejoin:round" id="path9636" cx="2.6314151" cy="290.45248" r="0.52916664"/>
        <circle style="fill:#ffffff;fill-opacity:1;stroke:none;stroke-width:0.264583;stroke-linecap:round;stroke-linejoin:round" id="path9690" cx="5.8064151" cy="290.45248" r="0.52916664"/>
      </g>
      <g id="g27471" transform="matrix(-0.25881905,0.96592583,0.96592583,0.25881905,-276.99096,212.70212)">
        <path style="opacity:0.25;fill:none;fill-opacity:1;stroke:#ffffff;stroke-width:0.529321;stroke-linecap:round;stroke-linejoin:round;stroke-dasharray:none;stroke-opacity:1" id="path19898" sodipodi:type="arc" sodipodi:cx="4.0456405" sodipodi:cy="291.6203" sodipodi:rx="2.6458333" sodipodi:ry="2.6458333" sodipodi:start="0.26179939" sodipodi:end="2.8797933" sodipodi:open="true" sodipodi:arc-type="arc" d="m 6.6013191,292.30509 a 2.6458333,2.6458333 0 0 1 -2.5556786,1.96104 2.6458333,2.6458333 0 0 1 -2.5556787,-1.96104"/>
        <path style="opacity:0.5;fill:none;fill-opacity:1;stroke:#ffffff;stroke-width:0.529321;stroke-linecap:round;stroke-linejoin:round;stroke-dasharray:none;stroke-opacity:1" id="path19896" sodipodi:type="arc" sodipodi:cx="4.0456405" sodipodi:cy="291.6203" sodipodi:rx="2.6458333" sodipodi:ry="2.6458333" sodipodi:start="0.26179939" sodipodi:end="2.3561945" sodipodi:open="true" sodipodi:arc-type="arc" d="m 6.6013191,292.30509 a 2.6458333,2.6458333 0 0 1 -1.8708866,1.87089 2.6458333,2.6458333 0 0 1 -2.5556787,-0.68479"/>
        <path style="fill:none;fill-opacity:1;stroke:#ffffff;stroke-width:0.529321;stroke-linecap:round;stroke-linejoin:round;stroke-dasharray:none;stroke-opacity:1" id="path9692" sodipodi:type="arc" sodipodi:cx="4.0456405" sodipodi:cy="291.6203" sodipodi:rx="2.6458333" sodipodi:ry="2.6458333" sodipodi:start="0.26179939" sodipodi:end="1.8325957" sodipodi:open="true" sodipodi:arc-type="arc" d="m 6.6013191,292.30509 a 2.6458333,2.6458333 0 0 1 -3.2404706,1.87089"/>
      </g>
    </g>
  </g>
</svg>